<?xml version="1.0" encoding="UTF-8"?>
<svg version="1.1" viewBox="0 0 71.577 71.577" xmlns="http://www.w3.org/2000/svg">
 <style>
  path { fill: #1c1917; stroke: #1c1917; }
 </style>
 <g transform="translate(-6.1457 -9.8053)" transform-origin="center">
  <path d="m69.866 43.138c-0.02552 0.06177-0.69577-0.12503-0.99429-0.20205-0.29852-0.07702-1.4292-0.49897-1.4292-0.49897-2.9402-0.88496-5.578-1.4882-6.5136-1.4897-0.61954-9.6e-4 -1.6477-0.14658-2.2848-0.32355-0.63711-0.17697-2.1866-0.45087-3.4432-0.60866l-2.2848-0.2869-2.5832 1.0732c-1.4208 0.59026-2.7513 1.2026-2.9568 1.3608-0.20545 0.15817-1.0936 0.47612-1.9736 0.70657-0.88 0.23044-1.7393 0.49664-1.9096 0.59154-0.45468 0.25343 6.5052 1.5654 10.328 1.9469 1.8143 0.18105 3.9743 0.55858 4.8 0.83894 1.514 0.51405 3.5986 0.9644 5.9719 1.2901 2.2615 0.31037 2.5421 0.37397 3.9793 0.90182 0.77545 0.28482 1.4822 0.44556 1.5706 0.3572 0.08835-0.08835 0.33598-0.0151 0.5503 0.16274 0.21431 0.17786 1.0684 0.39207 1.898 0.47601 0.82961 0.08395 1.6755 0.25744 1.8798 0.38554 0.20427 0.1281 1.0194 0.32541 1.8114 0.43846l1.44 0.20554-1.76 0.04051c-0.968 0.02227-2.912-0.23539-4.32-0.5726s-3.28-0.70874-4.16-0.82561c-2.3359-0.31022-2.495-0.33972-7.04-1.3053-2.288-0.4861-4.664-0.91736-5.28-0.95836-4.5003-0.29948-7.1335-0.58379-8.72-0.94148-1.9498-0.43962-2.2349-0.28818-1.2075 0.64156 0.61961 0.56074 0.60443 1.1268-0.03021 1.1268-0.176 0-0.24109-0.12768-0.14464-0.28374 0.09645-0.15606-0.03905-0.46169-0.30111-0.67918l-0.47649-0.39536v0.82792c0 0.52698-0.25741 0.96569-0.70814 1.2069l-0.70814 0.37899 0.70814 0.26196c0.38948 0.14408 0.70814 0.4924 0.70814 0.77406v0.5121l-0.96-0.68358c-1.1191-0.79685-1.2939-0.41319-0.24 0.52669 0.396 0.35316 1.8 2.0258 3.12 3.717 1.32 1.6912 2.5613 3.0842 2.7585 3.0956 0.44667 0.02579 7.0723 6.5666 9.267 9.1485 1.7892 2.1048 4.1217 5.2722 3.8825 5.2722-0.08362 0-0.54546-0.5158-1.0263-1.1462l2e-6 4.5e-5c-1.5726-2.0618-11.414-11.654-11.957-11.654-0.41033 0-1.969-1.5872-3.4713-3.5348-0.74037-0.95984-2.1987-2.5561-3.2407-3.5472-1.042-0.99111-1.9645-1.9991-2.0501-2.24-0.08553-0.24089-0.24912-0.35209-0.36353-0.24711-0.11441 0.10498 0.0099 0.71235 0.27619 1.3497 0.26631 0.63737 0.4842 2.0368 0.4842 3.1098 0 1.8945 0.40838 3.2679 1.9702 6.6256 0.34691 0.74582 0.6977 1.7538 0.77953 2.24 0.08183 0.48618 0.23661 1.1 0.34396 1.364 0.2339 0.57523 0.32295 1.0067 0.583 2.8249 0.10894 0.76168 0.33425 1.7431 0.5007 2.1808 0.38263 1.0064 0.39013 1.8062 0.01478 1.5742-0.15832-0.09784-0.46587-0.93434-0.68344-1.8589-0.21758-0.92454-0.65689-2.2012-0.97624-2.837-0.31935-0.63583-0.87211-2.2689-1.2284-3.629-0.35624-1.3601-0.94907-2.9605-1.3174-3.5565-0.37528-0.60722-0.93167-2.5287-1.2657-4.371-0.83822-4.6236-1.0101-5.36-1.2919-5.5342-0.13652-0.08437-0.64546 0.53062-1.131 1.3667-0.48552 0.83604-0.97803 1.5921-1.0945 1.6801-0.93802 0.70888-4.8037 7.6432-4.8037 8.617 0 0.20103-0.20708 0.68444-0.46017 1.0742s-0.77703 2.0047-1.1643 3.5887c-0.38728 1.584-0.8258 3.0144-0.9745 3.1787-0.58345 0.64454-0.57376-0.11771 0.02356-1.8538 0.34443-1.0011 0.7966-2.7167 1.0048-3.8125 0.20822-1.0958 0.63333-2.5683 0.94469-3.2723s0.91731-2.0756 1.3466-3.048 1.6723-2.9855 2.7623-4.4736c2.2727-3.1027 2.6415-4.0605 1.8001-4.6758-0.45002-0.32906-0.71495-0.33647-1.2472-0.03489-0.4415 0.25017-2.229 0.37519-5.1558 0.36062l-4.48-0.0223-2.24-0.76018c-1.232-0.4181-2.528-1.0307-2.88-1.3614-0.352-0.33067-1.288-0.94978-2.08-1.3758-0.792-0.42602-1.944-1.0619-2.56-1.413-1.4714-0.83874-7.474-6.7986-8.6976-8.6356l-0.95911-1.44 1.5483 1.7513c2.6288 2.9733 5.6696 5.7703 6.5083 5.9863 0.44 0.11333 1.88 0.87821 3.2 1.6997 4.0697 2.5329 5.9707 3.465 7.2504 3.5552 0.67629 0.04765 1.4102 0.22194 1.6309 0.38732 0.62452 0.46796 6.3076 0.71997 6.0278 0.26731-0.12479-0.20192-0.40159-0.36712-0.6151-0.36712-0.69917 0-2.779-1.9552-3.4233-3.2182-2.5019-4.9041 2.7169-7.6726 7.7387-4.1052 0.46717 0.33187 0.91959 0.6034 1.0054 0.6034 0.46937 0-1.0789-3.6309-2.1748-5.0999-0.704-0.94377-1.64-2.2493-2.08-2.9012-0.44-0.6519-1.955-2.5383-3.3668-4.1921s-2.7493-3.3668-2.9725-3.8068c-0.45944-0.90599-1.5591-2.209-4.1288-4.8924-0.97564-1.0188-1.7038-1.9225-1.6182-2.0081 0.08564-0.08564 1.5801 1.4317 3.3209 3.3719s3.2652 3.5279 3.3873 3.5281 1.0236 1.0655 2.0034 2.3673c0.97973 1.3018 2.5754 3.2098 3.5459 4.24 0.97054 1.0302 2.1454 2.5212 2.6108 3.3132 0.46538 0.792 1.026 1.656 1.2457 1.92 0.50098 0.6018 2.2707 5.0353 2.4205 6.0638 0.30728 2.1097 1.5417-0.02195 2.0291-3.5038 0.11085-0.792 0.32915-1.8 0.48511-2.24 0.15596-0.44 0.3453-1.6341 0.42077-2.6536 0.07546-1.0195 0.22708-1.9435 0.33692-2.0533 0.31978-0.31979 0.23016 5.5226-0.10773 7.0224-0.37266 1.6541-0.92812 5.1747-0.8333 5.2817 0.2025 0.22854 4.138-1.053 6.8382-2.2268l3.1026-1.3487 1.92-0.0026c3.2152-0.0042 10.108 1.6372 12.419 2.6989 0.33459 0.15373 0.83128 0.22483 1.1668 0.30054 0.32584 0.07351 0.71 0.28401 0.88732 0.33727 0.17731 0.05325 0.79373 0.22094 1.1248 0.36559s0.86533 0.54745 0.86533 0.54745" style="stroke-width:.32"/>
 </g>
</svg>
